<mxfile host="65bd71144e">
    <diagram id="K7MMtwXwDl5NfztKmLhr" name="Page-1">
        <mxGraphModel dx="2566" dy="1141" grid="0" gridSize="10" guides="1" tooltips="1" connect="0" arrows="0" fold="1" page="0" pageScale="1" pageWidth="827" pageHeight="1169" background="none" math="0" shadow="0">
            <root>
                <mxCell id="0"/>
                <mxCell id="1" parent="0"/>
                <mxCell id="13" value="FederationSpec" style="swimlane;fontStyle=0;childLayout=stackLayout;horizontal=1;startSize=26;fillColor=none;horizontalStack=0;resizeParent=1;resizeParentMax=0;resizeLast=0;collapsible=1;marginBottom=0;rounded=0;shadow=0;comic=0;swimlaneLine=1;glass=0;swimlaneFillColor=none;" parent="1" vertex="1">
                    <mxGeometry x="-780" y="109" width="136" height="132" as="geometry">
                        <mxRectangle x="110" y="120" width="90" height="26" as="alternateBounds"/>
                    </mxGeometry>
                </mxCell>
                <mxCell id="KDWJucEkSN8olWHDvFnU-158" value="+ Description" style="text;strokeColor=#000000;fillColor=none;align=left;verticalAlign=top;spacingLeft=4;spacingRight=4;overflow=hidden;rotatable=0;points=[[0,0.5],[1,0.5]];portConstraint=eastwest;rounded=0;dashed=1;glass=0;" parent="13" vertex="1">
                    <mxGeometry y="26" width="136" height="26" as="geometry"/>
                </mxCell>
                <mxCell id="KDWJucEkSN8olWHDvFnU-159" value="+ Policy&#10;   - OneVote&#10;   - Majority" style="text;strokeColor=#000000;fillColor=none;align=left;verticalAlign=top;spacingLeft=4;spacingRight=4;overflow=hidden;rotatable=0;points=[[0,0.5],[1,0.5]];portConstraint=eastwest;rounded=0;dashed=1;glass=0;" parent="13" vertex="1">
                    <mxGeometry y="52" width="136" height="54" as="geometry"/>
                </mxCell>
                <mxCell id="25" value="+ Members" style="text;strokeColor=#82b366;fillColor=#d5e8d4;align=left;verticalAlign=top;spacingLeft=4;spacingRight=4;overflow=hidden;rotatable=0;points=[[0,0.5],[1,0.5]];portConstraint=eastwest;rounded=0;dashed=1;glass=0;" parent="13" vertex="1">
                    <mxGeometry y="106" width="136" height="26" as="geometry"/>
                </mxCell>
                <mxCell id="46" value="ProposalSpec" style="swimlane;fontStyle=0;childLayout=stackLayout;horizontal=1;startSize=26;fillColor=none;horizontalStack=0;resizeParent=1;resizeParentMax=0;resizeLast=0;collapsible=1;marginBottom=0;rounded=0;shadow=0;comic=0;swimlaneLine=1;glass=0;swimlaneFillColor=none;" parent="1" vertex="1">
                    <mxGeometry x="-819" y="-250" width="134" height="303" as="geometry">
                        <mxRectangle x="110" y="120" width="90" height="26" as="alternateBounds"/>
                    </mxGeometry>
                </mxCell>
                <mxCell id="xBcwDLasngzOUOtFRYR--68" value="+ Members" style="text;strokeColor=#000000;fillColor=none;align=left;verticalAlign=top;spacingLeft=4;spacingRight=4;overflow=hidden;rotatable=0;points=[[0,0.5],[1,0.5]];portConstraint=eastwest;rounded=0;dashed=1;glass=0;" parent="46" vertex="1">
                    <mxGeometry y="26" width="134" height="26" as="geometry"/>
                </mxCell>
                <mxCell id="xBcwDLasngzOUOtFRYR--67" value="+ Policy" style="text;strokeColor=#000000;fillColor=none;align=left;verticalAlign=top;spacingLeft=4;spacingRight=4;overflow=hidden;rotatable=0;points=[[0,0.5],[1,0.5]];portConstraint=eastwest;rounded=0;dashed=1;glass=0;" parent="46" vertex="1">
                    <mxGeometry y="52" width="134" height="26" as="geometry"/>
                </mxCell>
                <mxCell id="50" value="+ Type&#10;   - CreateFederation&#10;   - ChangeMember&#10;   - DissolveFederation" style="text;strokeColor=#000000;fillColor=none;align=left;verticalAlign=top;spacingLeft=4;spacingRight=4;overflow=hidden;rotatable=0;points=[[0,0.5],[1,0.5]];portConstraint=eastwest;rounded=0;dashed=1;glass=0;" parent="46" vertex="1">
                    <mxGeometry y="78" width="134" height="69" as="geometry"/>
                </mxCell>
                <mxCell id="KDWJucEkSN8olWHDvFnU-233" value="+ CreateFederation&#10;" style="text;strokeColor=#000000;fillColor=none;align=left;verticalAlign=top;spacingLeft=4;spacingRight=4;overflow=hidden;rotatable=0;points=[[0,0.5],[1,0.5]];portConstraint=eastwest;rounded=0;dashed=1;glass=0;" parent="46" vertex="1">
                    <mxGeometry y="147" width="134" height="26" as="geometry"/>
                </mxCell>
                <mxCell id="51" value="+ ChangeMember&#10;" style="text;strokeColor=#000000;fillColor=none;align=left;verticalAlign=top;spacingLeft=4;spacingRight=4;overflow=hidden;rotatable=0;points=[[0,0.5],[1,0.5]];portConstraint=eastwest;rounded=0;dashed=1;glass=0;" parent="46" vertex="1">
                    <mxGeometry y="173" width="134" height="26" as="geometry"/>
                </mxCell>
                <mxCell id="KDWJucEkSN8olWHDvFnU-186" value="+ DissolveFederation" style="text;strokeColor=#000000;fillColor=none;align=left;verticalAlign=top;spacingLeft=4;spacingRight=4;overflow=hidden;rotatable=0;points=[[0,0.5],[1,0.5]];portConstraint=eastwest;rounded=0;dashed=1;glass=0;" parent="46" vertex="1">
                    <mxGeometry y="199" width="134" height="26" as="geometry"/>
                </mxCell>
                <mxCell id="KDWJucEkSN8olWHDvFnU-97" value="+ StartAt &#10;" style="text;strokeColor=#000000;fillColor=none;align=left;verticalAlign=top;spacingLeft=4;spacingRight=4;overflow=hidden;rotatable=0;points=[[0,0.5],[1,0.5]];portConstraint=eastwest;rounded=0;dashed=1;glass=0;" parent="46" vertex="1">
                    <mxGeometry y="225" width="134" height="26" as="geometry"/>
                </mxCell>
                <mxCell id="KDWJucEkSN8olWHDvFnU-190" value="+ EndAt&#10;" style="text;strokeColor=#000000;fillColor=none;align=left;verticalAlign=top;spacingLeft=4;spacingRight=4;overflow=hidden;rotatable=0;points=[[0,0.5],[1,0.5]];portConstraint=eastwest;rounded=0;dashed=1;glass=0;" parent="46" vertex="1">
                    <mxGeometry y="251" width="134" height="26" as="geometry"/>
                </mxCell>
                <mxCell id="KDWJucEkSN8olWHDvFnU-192" value="+ Deprecated" style="text;strokeColor=#000000;fillColor=none;align=left;verticalAlign=top;spacingLeft=4;spacingRight=4;overflow=hidden;rotatable=0;points=[[0,0.5],[1,0.5]];portConstraint=eastwest;rounded=0;dashed=1;glass=0;" parent="46" vertex="1">
                    <mxGeometry y="277" width="134" height="26" as="geometry"/>
                </mxCell>
                <mxCell id="58" value="Federation " style="swimlane;fontStyle=0;childLayout=stackLayout;horizontal=1;startSize=26;fillColor=#f8cecc;horizontalStack=0;resizeParent=1;resizeParentMax=0;resizeLast=0;collapsible=1;marginBottom=0;rounded=0;shadow=0;comic=0;swimlaneLine=1;glass=0;swimlaneFillColor=none;strokeColor=#b85450;" parent="1" vertex="1">
                    <mxGeometry x="-938" y="141" width="130" height="130" as="geometry">
                        <mxRectangle x="110" y="120" width="90" height="26" as="alternateBounds"/>
                    </mxGeometry>
                </mxCell>
                <mxCell id="59" value="+ TypeMeta" style="text;strokeColor=#000000;fillColor=none;align=left;verticalAlign=top;spacingLeft=4;spacingRight=4;overflow=hidden;rotatable=0;points=[[0,0.5],[1,0.5]];portConstraint=eastwest;dashed=1;rounded=0;glass=0;" parent="58" vertex="1">
                    <mxGeometry y="26" width="130" height="26" as="geometry"/>
                </mxCell>
                <mxCell id="60" value="+ ObjectMeta" style="text;strokeColor=#000000;fillColor=none;align=left;verticalAlign=top;spacingLeft=4;spacingRight=4;overflow=hidden;rotatable=0;points=[[0,0.5],[1,0.5]];portConstraint=eastwest;dashed=1;rounded=0;glass=0;" parent="58" vertex="1">
                    <mxGeometry y="52" width="130" height="26" as="geometry"/>
                </mxCell>
                <mxCell id="61" value="+ FederationSpec" style="text;strokeColor=#000000;fillColor=none;align=left;verticalAlign=top;spacingLeft=4;spacingRight=4;overflow=hidden;rotatable=0;points=[[0,0.5],[1,0.5]];portConstraint=eastwest;rounded=0;dashed=1;glass=0;" parent="58" vertex="1">
                    <mxGeometry y="78" width="130" height="26" as="geometry"/>
                </mxCell>
                <mxCell id="62" value="+ FederationStatus" style="text;strokeColor=#000000;fillColor=none;align=left;verticalAlign=top;spacingLeft=4;spacingRight=4;overflow=hidden;rotatable=0;points=[[0,0.5],[1,0.5]];portConstraint=eastwest;rounded=0;dashed=1;glass=0;" parent="58" vertex="1">
                    <mxGeometry y="104" width="130" height="26" as="geometry"/>
                </mxCell>
                <mxCell id="66" value="FederationStatus" style="swimlane;fontStyle=0;childLayout=stackLayout;horizontal=1;startSize=26;fillColor=none;horizontalStack=0;resizeParent=1;resizeParentMax=0;resizeLast=0;collapsible=1;marginBottom=0;rounded=0;shadow=0;comic=0;swimlaneLine=1;glass=0;swimlaneFillColor=none;" parent="1" vertex="1">
                    <mxGeometry x="-1094" y="219" width="132" height="52" as="geometry">
                        <mxRectangle x="110" y="120" width="90" height="26" as="alternateBounds"/>
                    </mxGeometry>
                </mxCell>
                <mxCell id="67" value="+ Condition" style="text;strokeColor=#000000;fillColor=none;align=left;verticalAlign=top;spacingLeft=4;spacingRight=4;overflow=hidden;rotatable=0;points=[[0,0.5],[1,0.5]];portConstraint=eastwest;dashed=1;rounded=0;glass=0;" parent="66" vertex="1">
                    <mxGeometry y="26" width="132" height="26" as="geometry"/>
                </mxCell>
                <mxCell id="KDWJucEkSN8olWHDvFnU-101" value="Organization " style="swimlane;fontStyle=0;childLayout=stackLayout;horizontal=1;startSize=26;fillColor=#f8cecc;horizontalStack=0;resizeParent=1;resizeParentMax=0;resizeLast=0;collapsible=1;marginBottom=0;rounded=0;shadow=0;comic=0;swimlaneLine=1;glass=0;swimlaneFillColor=none;strokeColor=#b85450;" parent="1" vertex="1">
                    <mxGeometry x="-938" y="284" width="130" height="130" as="geometry">
                        <mxRectangle x="110" y="120" width="90" height="26" as="alternateBounds"/>
                    </mxGeometry>
                </mxCell>
                <mxCell id="KDWJucEkSN8olWHDvFnU-102" value="+ TypeMeta" style="text;strokeColor=#000000;fillColor=none;align=left;verticalAlign=top;spacingLeft=4;spacingRight=4;overflow=hidden;rotatable=0;points=[[0,0.5],[1,0.5]];portConstraint=eastwest;dashed=1;rounded=0;glass=0;" parent="KDWJucEkSN8olWHDvFnU-101" vertex="1">
                    <mxGeometry y="26" width="130" height="26" as="geometry"/>
                </mxCell>
                <mxCell id="KDWJucEkSN8olWHDvFnU-103" value="+ ObjectMeta" style="text;strokeColor=#000000;fillColor=none;align=left;verticalAlign=top;spacingLeft=4;spacingRight=4;overflow=hidden;rotatable=0;points=[[0,0.5],[1,0.5]];portConstraint=eastwest;dashed=1;rounded=0;glass=0;" parent="KDWJucEkSN8olWHDvFnU-101" vertex="1">
                    <mxGeometry y="52" width="130" height="26" as="geometry"/>
                </mxCell>
                <mxCell id="KDWJucEkSN8olWHDvFnU-104" value="+ OrganizationSpec" style="text;strokeColor=#000000;fillColor=none;align=left;verticalAlign=top;spacingLeft=4;spacingRight=4;overflow=hidden;rotatable=0;points=[[0,0.5],[1,0.5]];portConstraint=eastwest;rounded=0;dashed=1;glass=0;" parent="KDWJucEkSN8olWHDvFnU-101" vertex="1">
                    <mxGeometry y="78" width="130" height="26" as="geometry"/>
                </mxCell>
                <mxCell id="KDWJucEkSN8olWHDvFnU-105" value="+ OrganizationStatus" style="text;strokeColor=#000000;fillColor=none;align=left;verticalAlign=top;spacingLeft=4;spacingRight=4;overflow=hidden;rotatable=0;points=[[0,0.5],[1,0.5]];portConstraint=eastwest;rounded=0;dashed=1;glass=0;" parent="KDWJucEkSN8olWHDvFnU-101" vertex="1">
                    <mxGeometry y="104" width="130" height="26" as="geometry"/>
                </mxCell>
                <mxCell id="KDWJucEkSN8olWHDvFnU-226" value="CreateFederation" style="swimlane;fontStyle=0;childLayout=stackLayout;horizontal=1;startSize=26;fillColor=none;horizontalStack=0;resizeParent=1;resizeParentMax=0;resizeLast=0;collapsible=1;marginBottom=0;rounded=0;shadow=0;comic=0;swimlaneLine=1;glass=0;swimlaneFillColor=none;" parent="1" vertex="1">
                    <mxGeometry x="-1048" y="-173" width="134" height="52" as="geometry">
                        <mxRectangle x="110" y="120" width="90" height="26" as="alternateBounds"/>
                    </mxGeometry>
                </mxCell>
                <mxCell id="KDWJucEkSN8olWHDvFnU-229" value="+ Federation" style="text;strokeColor=#82b366;fillColor=#d5e8d4;align=left;verticalAlign=top;spacingLeft=4;spacingRight=4;overflow=hidden;rotatable=0;points=[[0,0.5],[1,0.5]];portConstraint=eastwest;rounded=0;dashed=1;glass=0;" parent="KDWJucEkSN8olWHDvFnU-226" vertex="1">
                    <mxGeometry y="26" width="134" height="26" as="geometry"/>
                </mxCell>
                <mxCell id="KDWJucEkSN8olWHDvFnU-236" value="ChangeMember" style="swimlane;fontStyle=0;childLayout=stackLayout;horizontal=1;startSize=26;fillColor=none;horizontalStack=0;resizeParent=1;resizeParentMax=0;resizeLast=0;collapsible=1;marginBottom=0;rounded=0;shadow=0;comic=0;swimlaneLine=1;glass=0;swimlaneFillColor=none;" parent="1" vertex="1">
                    <mxGeometry x="-1048" y="-96" width="134" height="104" as="geometry">
                        <mxRectangle x="110" y="120" width="90" height="26" as="alternateBounds"/>
                    </mxGeometry>
                </mxCell>
                <mxCell id="KDWJucEkSN8olWHDvFnU-237" value="+ Federation" style="text;strokeColor=#82b366;fillColor=#d5e8d4;align=left;verticalAlign=top;spacingLeft=4;spacingRight=4;overflow=hidden;rotatable=0;points=[[0,0.5],[1,0.5]];portConstraint=eastwest;rounded=0;dashed=1;glass=0;" parent="KDWJucEkSN8olWHDvFnU-236" vertex="1">
                    <mxGeometry y="26" width="134" height="26" as="geometry"/>
                </mxCell>
                <mxCell id="KDWJucEkSN8olWHDvFnU-238" value="+ Action &#10;" style="text;strokeColor=#000000;fillColor=none;align=left;verticalAlign=top;spacingLeft=4;spacingRight=4;overflow=hidden;rotatable=0;points=[[0,0.5],[1,0.5]];portConstraint=eastwest;rounded=0;dashed=1;glass=0;" parent="KDWJucEkSN8olWHDvFnU-236" vertex="1">
                    <mxGeometry y="52" width="134" height="26" as="geometry"/>
                </mxCell>
                <mxCell id="KDWJucEkSN8olWHDvFnU-239" value="+ Member" style="text;strokeColor=#000000;fillColor=none;align=left;verticalAlign=top;spacingLeft=4;spacingRight=4;overflow=hidden;rotatable=0;points=[[0,0.5],[1,0.5]];portConstraint=eastwest;rounded=0;dashed=1;glass=0;" parent="KDWJucEkSN8olWHDvFnU-236" vertex="1">
                    <mxGeometry y="78" width="134" height="26" as="geometry"/>
                </mxCell>
                <mxCell id="KDWJucEkSN8olWHDvFnU-242" value="DissolveFederation" style="swimlane;fontStyle=0;childLayout=stackLayout;horizontal=1;startSize=26;fillColor=none;horizontalStack=0;resizeParent=1;resizeParentMax=0;resizeLast=0;collapsible=1;marginBottom=0;rounded=0;shadow=0;comic=0;swimlaneLine=1;glass=0;swimlaneFillColor=none;" parent="1" vertex="1">
                    <mxGeometry x="-1048" y="30.5" width="134" height="52" as="geometry">
                        <mxRectangle x="110" y="120" width="90" height="26" as="alternateBounds"/>
                    </mxGeometry>
                </mxCell>
                <mxCell id="KDWJucEkSN8olWHDvFnU-243" value="+ Federation" style="text;strokeColor=#82b366;fillColor=#d5e8d4;align=left;verticalAlign=top;spacingLeft=4;spacingRight=4;overflow=hidden;rotatable=0;points=[[0,0.5],[1,0.5]];portConstraint=eastwest;rounded=0;dashed=1;glass=0;" parent="KDWJucEkSN8olWHDvFnU-242" vertex="1">
                    <mxGeometry y="26" width="134" height="26" as="geometry"/>
                </mxCell>
                <mxCell id="KDWJucEkSN8olWHDvFnU-253" style="edgeStyle=orthogonalEdgeStyle;rounded=0;orthogonalLoop=1;jettySize=auto;html=1;entryX=1;entryY=0.192;entryDx=0;entryDy=0;entryPerimeter=0;" parent="1" source="25" target="68" edge="1">
                    <mxGeometry relative="1" as="geometry">
                        <Array as="points">
                            <mxPoint x="-624" y="228"/>
                            <mxPoint x="-624" y="277"/>
                        </Array>
                    </mxGeometry>
                </mxCell>
                <mxCell id="-aO0HeFxuFXKlExwXgox-67" value="Condition" style="swimlane;fontStyle=0;childLayout=stackLayout;horizontal=1;startSize=26;fillColor=none;horizontalStack=0;resizeParent=1;resizeParentMax=0;resizeLast=0;collapsible=1;marginBottom=0;rounded=0;shadow=0;comic=0;swimlaneLine=1;glass=0;swimlaneFillColor=none;" parent="1" vertex="1">
                    <mxGeometry x="-1238" y="93" width="122" height="178" as="geometry">
                        <mxRectangle x="110" y="120" width="90" height="26" as="alternateBounds"/>
                    </mxGeometry>
                </mxCell>
                <mxCell id="-aO0HeFxuFXKlExwXgox-68" value="+ ConditionType&#10;    - Pending&#10;    - Activated&#10;    - Failed &#10;    - Dissolved&#10;+ ConditionStatus&#10;    - True&#10;    - False&#10;    - Unknown" style="text;strokeColor=#000000;fillColor=none;align=left;verticalAlign=top;spacingLeft=4;spacingRight=4;overflow=hidden;rotatable=0;points=[[0,0.5],[1,0.5]];portConstraint=eastwest;dashed=1;rounded=0;glass=0;" parent="-aO0HeFxuFXKlExwXgox-67" vertex="1">
                    <mxGeometry y="26" width="122" height="152" as="geometry"/>
                </mxCell>
                <mxCell id="JA708I5HQVqm8P09V9eA-67" value="" style="endArrow=classic;html=1;rounded=0;exitX=0.015;exitY=0.442;exitDx=0;exitDy=0;exitPerimeter=0;entryX=-0.008;entryY=0.115;entryDx=0;entryDy=0;entryPerimeter=0;edgeStyle=orthogonalEdgeStyle;" parent="1" source="KDWJucEkSN8olWHDvFnU-229" target="58" edge="1">
                    <mxGeometry width="50" height="50" relative="1" as="geometry">
                        <mxPoint x="-1095" y="-137" as="sourcePoint"/>
                        <mxPoint x="-1159" y="-192" as="targetPoint"/>
                        <Array as="points">
                            <mxPoint x="-1080" y="-134"/>
                            <mxPoint x="-1080" y="156"/>
                        </Array>
                    </mxGeometry>
                </mxCell>
                <mxCell id="JA708I5HQVqm8P09V9eA-70" value="" style="endArrow=classic;html=1;rounded=0;edgeStyle=orthogonalEdgeStyle;" parent="1" edge="1">
                    <mxGeometry width="50" height="50" relative="1" as="geometry">
                        <mxPoint x="-1049" y="-49" as="sourcePoint"/>
                        <mxPoint x="-895" y="141" as="targetPoint"/>
                        <Array as="points">
                            <mxPoint x="-1067" y="-47"/>
                            <mxPoint x="-1067" y="117"/>
                            <mxPoint x="-895" y="117"/>
                        </Array>
                    </mxGeometry>
                </mxCell>
                <mxCell id="JA708I5HQVqm8P09V9eA-71" value="" style="endArrow=classic;html=1;rounded=0;edgeStyle=orthogonalEdgeStyle;entryX=0.531;entryY=0.008;entryDx=0;entryDy=0;entryPerimeter=0;" parent="1" target="58" edge="1">
                    <mxGeometry width="50" height="50" relative="1" as="geometry">
                        <mxPoint x="-912" y="70" as="sourcePoint"/>
                        <mxPoint x="-758" y="260" as="targetPoint"/>
                        <Array as="points">
                            <mxPoint x="-912" y="72"/>
                            <mxPoint x="-869" y="72"/>
                        </Array>
                    </mxGeometry>
                </mxCell>
                <mxCell id="JA708I5HQVqm8P09V9eA-72" value="" style="endArrow=classic;html=1;rounded=0;entryX=0.47;entryY=-0.019;entryDx=0;entryDy=0;entryPerimeter=0;exitX=-0.023;exitY=0.577;exitDx=0;exitDy=0;exitPerimeter=0;edgeStyle=orthogonalEdgeStyle;" parent="1" source="62" target="66" edge="1">
                    <mxGeometry width="50" height="50" relative="1" as="geometry">
                        <mxPoint x="-937" y="300" as="sourcePoint"/>
                        <mxPoint x="-887" y="250" as="targetPoint"/>
                    </mxGeometry>
                </mxCell>
                <mxCell id="JA708I5HQVqm8P09V9eA-73" value="" style="endArrow=classic;html=1;rounded=0;entryX=-0.007;entryY=0.113;entryDx=0;entryDy=0;entryPerimeter=0;edgeStyle=orthogonalEdgeStyle;" parent="1" source="61" target="13" edge="1">
                    <mxGeometry width="50" height="50" relative="1" as="geometry">
                        <mxPoint x="-930.99" y="270.00199999999995" as="sourcePoint"/>
                        <mxPoint x="-1021.96" y="228.01199999999994" as="targetPoint"/>
                    </mxGeometry>
                </mxCell>
                <mxCell id="JA708I5HQVqm8P09V9eA-75" value="" style="endArrow=classic;html=1;rounded=0;entryX=1;entryY=0.149;entryDx=0;entryDy=0;entryPerimeter=0;edgeStyle=orthogonalEdgeStyle;" parent="1" target="KDWJucEkSN8olWHDvFnU-226" edge="1">
                    <mxGeometry width="50" height="50" relative="1" as="geometry">
                        <mxPoint x="-820" y="-89" as="sourcePoint"/>
                        <mxPoint x="-556" y="-215" as="targetPoint"/>
                    </mxGeometry>
                </mxCell>
                <mxCell id="JA708I5HQVqm8P09V9eA-76" value="" style="endArrow=classic;html=1;rounded=0;exitX=0;exitY=0.635;exitDx=0;exitDy=0;exitPerimeter=0;entryX=1;entryY=0.12;entryDx=0;entryDy=0;entryPerimeter=0;edgeStyle=orthogonalEdgeStyle;" parent="1" source="51" target="KDWJucEkSN8olWHDvFnU-236" edge="1">
                    <mxGeometry width="50" height="50" relative="1" as="geometry">
                        <mxPoint x="-853" y="-76.01199999999994" as="sourcePoint"/>
                        <mxPoint x="-916.01" y="-168.00400000000002" as="targetPoint"/>
                    </mxGeometry>
                </mxCell>
                <mxCell id="JA708I5HQVqm8P09V9eA-78" value="" style="endArrow=classic;html=1;rounded=0;exitX=0;exitY=0.269;exitDx=0;exitDy=0;exitPerimeter=0;entryX=1;entryY=0.079;entryDx=0;entryDy=0;entryPerimeter=0;edgeStyle=orthogonalEdgeStyle;" parent="1" source="67" target="-aO0HeFxuFXKlExwXgox-67" edge="1">
                    <mxGeometry width="50" height="50" relative="1" as="geometry">
                        <mxPoint x="-1185" y="-10" as="sourcePoint"/>
                        <mxPoint x="-1135" y="-60" as="targetPoint"/>
                    </mxGeometry>
                </mxCell>
                <mxCell id="xBcwDLasngzOUOtFRYR--69" value="" style="endArrow=classic;html=1;rounded=0;exitX=0;exitY=0.635;exitDx=0;exitDy=0;exitPerimeter=0;entryX=1.007;entryY=0.317;entryDx=0;entryDy=0;entryPerimeter=0;edgeStyle=orthogonalEdgeStyle;" parent="1" target="KDWJucEkSN8olWHDvFnU-242" edge="1">
                    <mxGeometry width="50" height="50" relative="1" as="geometry">
                        <mxPoint x="-819" y="-39.97000000000001" as="sourcePoint"/>
                        <mxPoint x="-914" y="-62.999999999999986" as="targetPoint"/>
                    </mxGeometry>
                </mxCell>
                <mxCell id="68" value="Member" style="swimlane;fontStyle=0;childLayout=stackLayout;horizontal=1;startSize=26;fillColor=none;horizontalStack=0;resizeParent=1;resizeParentMax=0;resizeLast=0;collapsible=1;marginBottom=0;rounded=0;shadow=0;comic=0;swimlaneLine=1;glass=0;swimlaneFillColor=none;" vertex="1" parent="1">
                    <mxGeometry x="-777" y="260" width="136" height="104" as="geometry">
                        <mxRectangle x="110" y="120" width="90" height="26" as="alternateBounds"/>
                    </mxGeometry>
                </mxCell>
                <mxCell id="69" value="+ Name" style="text;strokeColor=#82b366;fillColor=#d5e8d4;align=left;verticalAlign=top;spacingLeft=4;spacingRight=4;overflow=hidden;rotatable=0;points=[[0,0.5],[1,0.5]];portConstraint=eastwest;rounded=0;dashed=1;glass=0;" vertex="1" parent="68">
                    <mxGeometry y="26" width="136" height="26" as="geometry"/>
                </mxCell>
                <mxCell id="71" value="+ Namespace" style="text;strokeColor=#82b366;fillColor=#d5e8d4;align=left;verticalAlign=top;spacingLeft=4;spacingRight=4;overflow=hidden;rotatable=0;points=[[0,0.5],[1,0.5]];portConstraint=eastwest;rounded=0;dashed=1;glass=0;" vertex="1" parent="68">
                    <mxGeometry y="52" width="136" height="26" as="geometry"/>
                </mxCell>
                <mxCell id="72" value="+ Initiator" style="text;align=left;verticalAlign=top;spacingLeft=4;spacingRight=4;overflow=hidden;rotatable=0;points=[[0,0.5],[1,0.5]];portConstraint=eastwest;rounded=0;dashed=1;glass=0;" vertex="1" parent="68">
                    <mxGeometry y="78" width="136" height="26" as="geometry"/>
                </mxCell>
                <mxCell id="73" value="" style="endArrow=classic;html=1;exitX=0.007;exitY=0.538;exitDx=0;exitDy=0;exitPerimeter=0;entryX=0.992;entryY=0.115;entryDx=0;entryDy=0;entryPerimeter=0;" edge="1" parent="1" source="69" target="KDWJucEkSN8olWHDvFnU-101">
                    <mxGeometry width="50" height="50" relative="1" as="geometry">
                        <mxPoint x="-1029" y="378" as="sourcePoint"/>
                        <mxPoint x="-979" y="328" as="targetPoint"/>
                    </mxGeometry>
                </mxCell>
            </root>
        </mxGraphModel>
    </diagram>
</mxfile>